<mxfile host="65bd71144e">
    <diagram id="c87qXy51VqpFD1b8CfQG" name="Page-1">
        <mxGraphModel dx="5322" dy="2364" grid="1" gridSize="10" guides="1" tooltips="1" connect="1" arrows="1" fold="1" page="0" pageScale="1" pageWidth="850" pageHeight="1100" math="0" shadow="0">
            <root>
                <mxCell id="0"/>
                <mxCell id="1" parent="0"/>
                <mxCell id="81" value="n2" style="ellipse;shape=doubleEllipse;whiteSpace=wrap;html=1;aspect=fixed;" parent="1" vertex="1">
                    <mxGeometry x="-2118.75" y="638.5" width="77.5" height="77.5" as="geometry"/>
                </mxCell>
                <mxCell id="82" value="n1" style="ellipse;shape=doubleEllipse;whiteSpace=wrap;html=1;aspect=fixed;" parent="1" vertex="1">
                    <mxGeometry x="-2118.75" y="842" width="77.5" height="77.5" as="geometry"/>
                </mxCell>
                <mxCell id="170" value="" style="edgeStyle=none;html=1;fontSize=20;" parent="1" target="82" edge="1">
                    <mxGeometry relative="1" as="geometry">
                        <mxPoint x="-2073.0677495743184" y="920" as="sourcePoint"/>
                    </mxGeometry>
                </mxCell>
                <mxCell id="85" value="n7" style="ellipse;shape=doubleEllipse;whiteSpace=wrap;html=1;aspect=fixed;" parent="1" vertex="1">
                    <mxGeometry x="228.75" y="2920" width="77.5" height="77.5" as="geometry"/>
                </mxCell>
                <mxCell id="86" value="n8" style="ellipse;shape=doubleEllipse;whiteSpace=wrap;html=1;aspect=fixed;" parent="1" vertex="1">
                    <mxGeometry x="471.25" y="2920" width="77.5" height="77.5" as="geometry"/>
                </mxCell>
                <mxCell id="87" value="n5" style="ellipse;shape=doubleEllipse;whiteSpace=wrap;html=1;aspect=fixed;" parent="1" vertex="1">
                    <mxGeometry x="-248.75" y="2920" width="77.5" height="77.5" as="geometry"/>
                </mxCell>
                <mxCell id="88" value="n6" style="ellipse;shape=doubleEllipse;whiteSpace=wrap;html=1;aspect=fixed;" parent="1" vertex="1">
                    <mxGeometry x="-6.25" y="2920" width="77.5" height="77.5" as="geometry"/>
                </mxCell>
                <mxCell id="89" value="n3" style="ellipse;shape=doubleEllipse;whiteSpace=wrap;html=1;aspect=fixed;" parent="1" vertex="1">
                    <mxGeometry x="-731.25" y="2920" width="77.5" height="77.5" as="geometry"/>
                </mxCell>
                <mxCell id="90" value="n4" style="ellipse;shape=doubleEllipse;whiteSpace=wrap;html=1;aspect=fixed;" parent="1" vertex="1">
                    <mxGeometry x="-488.75" y="2920" width="77.5" height="77.5" as="geometry"/>
                </mxCell>
                <mxCell id="91" value="n1" style="ellipse;shape=doubleEllipse;whiteSpace=wrap;html=1;aspect=fixed;" parent="1" vertex="1">
                    <mxGeometry x="-1208.75" y="2920" width="77.5" height="77.5" as="geometry"/>
                </mxCell>
                <mxCell id="92" value="n2" style="ellipse;shape=doubleEllipse;whiteSpace=wrap;html=1;aspect=fixed;" parent="1" vertex="1">
                    <mxGeometry x="-966.25" y="2920" width="77.5" height="77.5" as="geometry"/>
                </mxCell>
                <mxCell id="125" style="edgeStyle=none;html=1;entryX=0;entryY=1;entryDx=0;entryDy=0;" parent="1" source="105" target="106" edge="1">
                    <mxGeometry relative="1" as="geometry"/>
                </mxCell>
                <mxCell id="162" value="2" style="edgeLabel;html=1;align=center;verticalAlign=middle;resizable=0;points=[];fontSize=20;" parent="125" vertex="1" connectable="0">
                    <mxGeometry x="-0.3139" y="1" relative="1" as="geometry">
                        <mxPoint x="-1" as="offset"/>
                    </mxGeometry>
                </mxCell>
                <mxCell id="129" style="edgeStyle=none;html=1;entryX=1;entryY=0;entryDx=0;entryDy=0;exitX=1;exitY=0.75;exitDx=0;exitDy=0;" parent="1" source="105" target="126" edge="1">
                    <mxGeometry relative="1" as="geometry">
                        <Array as="points">
                            <mxPoint x="-770" y="335"/>
                            <mxPoint x="-770" y="525"/>
                        </Array>
                    </mxGeometry>
                </mxCell>
                <mxCell id="105" value="" style="shape=ext;double=1;rounded=0;whiteSpace=wrap;html=1;" parent="1" vertex="1">
                    <mxGeometry x="-820" y="230" width="20" height="140" as="geometry"/>
                </mxCell>
                <mxCell id="131" style="edgeStyle=none;html=1;entryX=-0.15;entryY=0.382;entryDx=0;entryDy=0;entryPerimeter=0;" parent="1" source="106" target="132" edge="1">
                    <mxGeometry relative="1" as="geometry">
                        <mxPoint x="-580" y="690" as="targetPoint"/>
                        <Array as="points">
                            <mxPoint x="-597" y="721"/>
                        </Array>
                    </mxGeometry>
                </mxCell>
                <mxCell id="380" style="edgeStyle=none;html=1;exitX=1;exitY=0;exitDx=0;exitDy=0;entryX=1;entryY=0.75;entryDx=0;entryDy=0;fontSize=16;" parent="1" source="106" target="379" edge="1">
                    <mxGeometry relative="1" as="geometry"/>
                </mxCell>
                <mxCell id="106" value="" style="ellipse;shape=doubleEllipse;whiteSpace=wrap;html=1;aspect=fixed;" parent="1" vertex="1">
                    <mxGeometry x="-690" y="117.5" width="146.25" height="146.25" as="geometry"/>
                </mxCell>
                <mxCell id="329" style="edgeStyle=none;html=1;entryX=0;entryY=0.5;entryDx=0;entryDy=0;fontSize=16;" parent="1" source="107" target="105" edge="1">
                    <mxGeometry relative="1" as="geometry"/>
                </mxCell>
                <mxCell id="107" value="" style="ellipse;shape=doubleEllipse;whiteSpace=wrap;html=1;aspect=fixed;" parent="1" vertex="1">
                    <mxGeometry x="-940" y="266.25" width="67.5" height="67.5" as="geometry"/>
                </mxCell>
                <mxCell id="327" style="edgeStyle=none;html=1;entryX=0;entryY=0.5;entryDx=0;entryDy=0;fontSize=16;" parent="1" source="108" target="109" edge="1">
                    <mxGeometry relative="1" as="geometry"/>
                </mxCell>
                <mxCell id="108" value="" style="ellipse;shape=doubleEllipse;whiteSpace=wrap;html=1;aspect=fixed;" parent="1" vertex="1">
                    <mxGeometry x="-940" y="30" width="67.5" height="67.5" as="geometry"/>
                </mxCell>
                <mxCell id="122" style="edgeStyle=none;html=1;entryX=0;entryY=0;entryDx=0;entryDy=0;" parent="1" source="109" target="106" edge="1">
                    <mxGeometry relative="1" as="geometry"/>
                </mxCell>
                <mxCell id="109" value="" style="shape=ext;double=1;rounded=0;whiteSpace=wrap;html=1;" parent="1" vertex="1">
                    <mxGeometry x="-820" y="-6.25" width="20" height="140" as="geometry"/>
                </mxCell>
                <mxCell id="326" style="edgeStyle=none;html=1;exitX=1;exitY=0.5;exitDx=0;exitDy=0;entryX=0;entryY=0.5;entryDx=0;entryDy=0;fontSize=16;" parent="1" source="110" target="108" edge="1">
                    <mxGeometry relative="1" as="geometry"/>
                </mxCell>
                <mxCell id="110" value="" style="shape=ext;double=1;rounded=0;whiteSpace=wrap;html=1;" parent="1" vertex="1">
                    <mxGeometry x="-1020" y="-6.25" width="20" height="140" as="geometry"/>
                </mxCell>
                <mxCell id="328" style="edgeStyle=none;html=1;exitX=1;exitY=0.5;exitDx=0;exitDy=0;entryX=0;entryY=0.5;entryDx=0;entryDy=0;fontSize=16;" parent="1" source="111" target="107" edge="1">
                    <mxGeometry relative="1" as="geometry"/>
                </mxCell>
                <mxCell id="111" value="" style="shape=ext;double=1;rounded=0;whiteSpace=wrap;html=1;" parent="1" vertex="1">
                    <mxGeometry x="-1020" y="230" width="20" height="140" as="geometry"/>
                </mxCell>
                <mxCell id="127" style="edgeStyle=none;html=1;entryX=-0.093;entryY=0.724;entryDx=0;entryDy=0;exitX=0;exitY=0;exitDx=0;exitDy=0;entryPerimeter=0;" parent="1" source="126" target="111" edge="1">
                    <mxGeometry relative="1" as="geometry">
                        <Array as="points">
                            <mxPoint x="-1040" y="525"/>
                            <mxPoint x="-1040" y="330"/>
                        </Array>
                    </mxGeometry>
                </mxCell>
                <mxCell id="227" style="edgeStyle=none;html=1;entryX=0;entryY=0.25;entryDx=0;entryDy=0;fontSize=12;" parent="1" source="126" target="226" edge="1">
                    <mxGeometry relative="1" as="geometry">
                        <Array as="points">
                            <mxPoint x="-1570" y="550"/>
                            <mxPoint x="-1570" y="1115"/>
                        </Array>
                    </mxGeometry>
                </mxCell>
                <mxCell id="365" style="edgeStyle=none;html=1;exitX=0;exitY=1;exitDx=0;exitDy=0;fontSize=16;" parent="1" source="126" edge="1">
                    <mxGeometry relative="1" as="geometry">
                        <mxPoint x="-1950" y="1380" as="targetPoint"/>
                    </mxGeometry>
                </mxCell>
                <mxCell id="126" value="1" style="ellipse;shape=doubleEllipse;whiteSpace=wrap;html=1;aspect=fixed;" parent="1" vertex="1">
                    <mxGeometry x="-940" y="514.75" width="67.5" height="67.5" as="geometry"/>
                </mxCell>
                <mxCell id="137" style="edgeStyle=none;html=1;exitX=0.5;exitY=0;exitDx=0;exitDy=0;entryX=0;entryY=0.75;entryDx=0;entryDy=0;" parent="1" source="130" target="132" edge="1">
                    <mxGeometry relative="1" as="geometry">
                        <Array as="points">
                            <mxPoint x="-656" y="773"/>
                        </Array>
                    </mxGeometry>
                </mxCell>
                <mxCell id="237" style="edgeStyle=none;html=1;exitX=0;exitY=1;exitDx=0;exitDy=0;entryX=0;entryY=0.25;entryDx=0;entryDy=0;fontSize=25;" parent="1" source="130" target="172" edge="1">
                    <mxGeometry relative="1" as="geometry"/>
                </mxCell>
                <mxCell id="244" style="edgeStyle=none;html=1;exitX=0.5;exitY=1;exitDx=0;exitDy=0;entryX=-0.057;entryY=0.563;entryDx=0;entryDy=0;entryPerimeter=0;fontSize=25;" parent="1" source="130" target="240" edge="1">
                    <mxGeometry relative="1" as="geometry"/>
                </mxCell>
                <mxCell id="130" value="90" style="ellipse;shape=doubleEllipse;whiteSpace=wrap;html=1;aspect=fixed;" parent="1" vertex="1">
                    <mxGeometry x="-690" y="832.5" width="67.5" height="67.5" as="geometry"/>
                </mxCell>
                <mxCell id="135" style="edgeStyle=none;html=1;exitX=1;exitY=0.5;exitDx=0;exitDy=0;entryX=0;entryY=0.549;entryDx=0;entryDy=0;entryPerimeter=0;" parent="1" source="132" target="133" edge="1">
                    <mxGeometry relative="1" as="geometry"/>
                </mxCell>
                <mxCell id="142" style="edgeStyle=none;html=1;exitX=1;exitY=0.75;exitDx=0;exitDy=0;entryX=0.5;entryY=1;entryDx=0;entryDy=0;" parent="1" source="132" target="138" edge="1">
                    <mxGeometry relative="1" as="geometry">
                        <mxPoint x="-750" y="910" as="targetPoint"/>
                        <Array as="points">
                            <mxPoint x="-250" y="773"/>
                            <mxPoint x="-250" y="980"/>
                            <mxPoint x="-746" y="980"/>
                        </Array>
                    </mxGeometry>
                </mxCell>
                <mxCell id="132" value="" style="shape=ext;double=1;rounded=0;whiteSpace=wrap;html=1;rotation=0;" parent="1" vertex="1">
                    <mxGeometry x="-330" y="667.5" width="20" height="140" as="geometry"/>
                </mxCell>
                <mxCell id="345" style="edgeStyle=none;html=1;exitX=1;exitY=0;exitDx=0;exitDy=0;entryX=1;entryY=0.75;entryDx=0;entryDy=0;fontSize=16;" parent="1" source="133" target="337" edge="1">
                    <mxGeometry relative="1" as="geometry"/>
                </mxCell>
                <mxCell id="133" value="" style="ellipse;shape=doubleEllipse;whiteSpace=wrap;html=1;aspect=fixed;" parent="1" vertex="1">
                    <mxGeometry x="-140" y="700" width="67.5" height="67.5" as="geometry"/>
                </mxCell>
                <mxCell id="141" style="edgeStyle=none;html=1;entryX=-0.15;entryY=0.568;entryDx=0;entryDy=0;entryPerimeter=0;" parent="1" source="138" target="132" edge="1">
                    <mxGeometry relative="1" as="geometry">
                        <Array as="points">
                            <mxPoint x="-746" y="747"/>
                        </Array>
                    </mxGeometry>
                </mxCell>
                <mxCell id="236" style="edgeStyle=none;html=1;exitX=0;exitY=1;exitDx=0;exitDy=0;entryX=0;entryY=0.5;entryDx=0;entryDy=0;fontSize=25;" parent="1" source="138" target="172" edge="1">
                    <mxGeometry relative="1" as="geometry"/>
                </mxCell>
                <mxCell id="243" style="edgeStyle=none;html=1;exitX=1;exitY=1;exitDx=0;exitDy=0;entryX=0;entryY=0.75;entryDx=0;entryDy=0;fontSize=25;" parent="1" source="138" target="240" edge="1">
                    <mxGeometry relative="1" as="geometry"/>
                </mxCell>
                <mxCell id="249" style="edgeStyle=none;html=1;exitX=1;exitY=0.5;exitDx=0;exitDy=0;fontSize=25;" parent="1" source="138" edge="1">
                    <mxGeometry relative="1" as="geometry">
                        <mxPoint x="-383.4000000000001" y="1246.8" as="targetPoint"/>
                    </mxGeometry>
                </mxCell>
                <mxCell id="252" style="edgeStyle=none;html=1;exitX=1;exitY=0;exitDx=0;exitDy=0;entryX=0;entryY=0.5;entryDx=0;entryDy=0;fontSize=25;" parent="1" source="138" target="242" edge="1">
                    <mxGeometry relative="1" as="geometry"/>
                </mxCell>
                <mxCell id="138" value="" style="ellipse;shape=doubleEllipse;whiteSpace=wrap;html=1;aspect=fixed;" parent="1" vertex="1">
                    <mxGeometry x="-780" y="837.5" width="67.5" height="67.5" as="geometry"/>
                </mxCell>
                <mxCell id="145" value="&lt;font style=&quot;font-size: 25px&quot;&gt;p=2&lt;/font&gt;" style="text;html=1;align=center;verticalAlign=middle;resizable=0;points=[];autosize=1;strokeColor=none;fillColor=none;" parent="1" vertex="1">
                    <mxGeometry x="-356" y="819" width="52" height="23" as="geometry"/>
                </mxCell>
                <mxCell id="155" value="exp(10s)" style="text;html=1;align=center;verticalAlign=middle;resizable=0;points=[];autosize=1;strokeColor=none;fillColor=none;" parent="1" vertex="1">
                    <mxGeometry x="-840" y="374" width="60" height="20" as="geometry"/>
                </mxCell>
                <mxCell id="156" value="exp(10s)" style="text;html=1;align=center;verticalAlign=middle;resizable=0;points=[];autosize=1;strokeColor=none;fillColor=none;" parent="1" vertex="1">
                    <mxGeometry x="-840" y="140" width="60" height="20" as="geometry"/>
                </mxCell>
                <mxCell id="157" value="Auto" style="text;html=1;align=center;verticalAlign=middle;resizable=0;points=[];autosize=1;strokeColor=none;fillColor=none;fontSize=20;" parent="1" vertex="1">
                    <mxGeometry x="-600" y="607.5" width="60" height="30" as="geometry"/>
                </mxCell>
                <mxCell id="159" value="p=12" style="text;html=1;align=center;verticalAlign=middle;resizable=0;points=[];autosize=1;strokeColor=none;fillColor=none;fontSize=20;" parent="1" vertex="1">
                    <mxGeometry x="-1038" y="370" width="55" height="28" as="geometry"/>
                </mxCell>
                <mxCell id="160" value="p=11" style="text;html=1;align=center;verticalAlign=middle;resizable=0;points=[];autosize=1;strokeColor=none;fillColor=none;fontSize=20;" parent="1" vertex="1">
                    <mxGeometry x="-1037" y="140" width="54" height="28" as="geometry"/>
                </mxCell>
                <mxCell id="171" style="edgeStyle=none;html=1;exitX=1;exitY=0.5;exitDx=0;exitDy=0;" parent="1" source="172" edge="1">
                    <mxGeometry relative="1" as="geometry">
                        <mxPoint x="-1232" y="1495" as="targetPoint"/>
                    </mxGeometry>
                </mxCell>
                <mxCell id="239" style="edgeStyle=none;html=1;exitX=1;exitY=0.25;exitDx=0;exitDy=0;entryX=0.319;entryY=0.973;entryDx=0;entryDy=0;entryPerimeter=0;fontSize=25;" parent="1" source="172" target="138" edge="1">
                    <mxGeometry relative="1" as="geometry">
                        <Array as="points">
                            <mxPoint x="-1197" y="1386"/>
                            <mxPoint x="-758" y="1377"/>
                        </Array>
                    </mxGeometry>
                </mxCell>
                <mxCell id="172" value="" style="shape=ext;double=1;rounded=0;whiteSpace=wrap;html=1;rotation=90;" parent="1" vertex="1">
                    <mxGeometry x="-1242.25" y="1245" width="20" height="140" as="geometry"/>
                </mxCell>
                <mxCell id="351" style="edgeStyle=none;html=1;exitX=0.5;exitY=1;exitDx=0;exitDy=0;fontSize=16;" parent="1" source="173" target="350" edge="1">
                    <mxGeometry relative="1" as="geometry"/>
                </mxCell>
                <mxCell id="173" value="" style="ellipse;shape=doubleEllipse;whiteSpace=wrap;html=1;aspect=fixed;" parent="1" vertex="1">
                    <mxGeometry x="-1266" y="1495" width="67.5" height="67.5" as="geometry"/>
                </mxCell>
                <mxCell id="174" value="&lt;font style=&quot;font-size: 30px&quot;&gt;p=1&lt;/font&gt;" style="text;html=1;align=center;verticalAlign=middle;resizable=0;points=[];autosize=1;strokeColor=none;fillColor=none;" parent="1" vertex="1">
                    <mxGeometry x="-1161" y="1303" width="61" height="24" as="geometry"/>
                </mxCell>
                <mxCell id="238" style="edgeStyle=none;html=1;entryX=0;entryY=0.75;entryDx=0;entryDy=0;fontSize=25;exitX=0.67;exitY=1.01;exitDx=0;exitDy=0;exitPerimeter=0;" parent="1" source="285" target="172" edge="1">
                    <mxGeometry relative="1" as="geometry">
                        <mxPoint x="-1256" y="647.5" as="sourcePoint"/>
                    </mxGeometry>
                </mxCell>
                <mxCell id="248" style="edgeStyle=none;html=1;entryX=0;entryY=0.75;entryDx=0;entryDy=0;fontSize=25;" parent="1" source="285" target="241" edge="1">
                    <mxGeometry relative="1" as="geometry">
                        <mxPoint x="-1232.135146134924" y="637.6148538650759" as="sourcePoint"/>
                    </mxGeometry>
                </mxCell>
                <mxCell id="210" style="edgeStyle=none;html=1;entryX=0;entryY=0.25;entryDx=0;entryDy=0;exitX=0.018;exitY=0.336;exitDx=0;exitDy=0;exitPerimeter=0;" parent="1" source="126" target="110" edge="1">
                    <mxGeometry relative="1" as="geometry">
                        <Array as="points">
                            <mxPoint x="-1050" y="540"/>
                            <mxPoint x="-1050" y="29"/>
                        </Array>
                        <mxPoint x="-1084.728848804245" y="796.4904067020398" as="sourcePoint"/>
                        <mxPoint x="-1010" y="417.5" as="targetPoint"/>
                    </mxGeometry>
                </mxCell>
                <mxCell id="303" value="n1" style="edgeStyle=none;html=1;exitX=1;exitY=0.25;exitDx=0;exitDy=0;entryX=0.5;entryY=1;entryDx=0;entryDy=0;" parent="1" source="211" target="285" edge="1">
                    <mxGeometry relative="1" as="geometry"/>
                </mxCell>
                <mxCell id="305" style="edgeStyle=none;html=1;exitX=1;exitY=0.75;exitDx=0;exitDy=0;entryX=0.038;entryY=0.279;entryDx=0;entryDy=0;fontSize=16;entryPerimeter=0;" parent="1" source="211" target="232" edge="1">
                    <mxGeometry relative="1" as="geometry">
                        <Array as="points">
                            <mxPoint x="-1856" y="920"/>
                        </Array>
                    </mxGeometry>
                </mxCell>
                <mxCell id="211" value="" style="shape=ext;double=1;rounded=0;whiteSpace=wrap;html=1;" parent="1" vertex="1">
                    <mxGeometry x="-1942.5" y="801.75" width="20" height="158" as="geometry"/>
                </mxCell>
                <mxCell id="212" value="p=10" style="text;html=1;align=center;verticalAlign=middle;resizable=0;points=[];autosize=1;strokeColor=none;fillColor=none;" parent="1" vertex="1">
                    <mxGeometry x="-1951" y="965.5" width="37" height="18" as="geometry"/>
                </mxCell>
                <mxCell id="228" style="edgeStyle=none;html=1;entryX=0;entryY=0.5;entryDx=0;entryDy=0;fontSize=12;" parent="1" source="226" target="138" edge="1">
                    <mxGeometry relative="1" as="geometry"/>
                </mxCell>
                <mxCell id="226" value="" style="shape=ext;double=1;rounded=0;whiteSpace=wrap;html=1;" parent="1" vertex="1">
                    <mxGeometry x="-1530" y="1080" width="20" height="140" as="geometry"/>
                </mxCell>
                <mxCell id="276" style="edgeStyle=none;html=1;exitX=0.019;exitY=0.418;exitDx=0;exitDy=0;entryX=0;entryY=0.75;entryDx=0;entryDy=0;exitPerimeter=0;" parent="1" source="229" target="275" edge="1">
                    <mxGeometry relative="1" as="geometry"/>
                </mxCell>
                <mxCell id="278" style="edgeStyle=none;html=1;entryX=0;entryY=0.75;entryDx=0;entryDy=0;exitX=0.073;exitY=0.246;exitDx=0;exitDy=0;exitPerimeter=0;" parent="1" source="229" target="274" edge="1">
                    <mxGeometry relative="1" as="geometry"/>
                </mxCell>
                <mxCell id="279" style="edgeStyle=none;html=1;exitX=0.225;exitY=0.092;exitDx=0;exitDy=0;entryX=0;entryY=0.75;entryDx=0;entryDy=0;exitPerimeter=0;" parent="1" source="229" target="273" edge="1">
                    <mxGeometry relative="1" as="geometry"/>
                </mxCell>
                <mxCell id="280" style="edgeStyle=none;html=1;entryX=0;entryY=0.75;entryDx=0;entryDy=0;exitX=0.39;exitY=0.011;exitDx=0;exitDy=0;exitPerimeter=0;" parent="1" source="229" target="272" edge="1">
                    <mxGeometry relative="1" as="geometry">
                        <mxPoint x="-3020" y="170" as="sourcePoint"/>
                    </mxGeometry>
                </mxCell>
                <mxCell id="281" style="edgeStyle=none;html=1;exitX=0.651;exitY=0.018;exitDx=0;exitDy=0;exitPerimeter=0;entryX=0;entryY=0.25;entryDx=0;entryDy=0;" parent="1" source="229" target="271" edge="1">
                    <mxGeometry relative="1" as="geometry">
                        <mxPoint x="-1950" y="240" as="targetPoint"/>
                    </mxGeometry>
                </mxCell>
                <mxCell id="282" style="edgeStyle=none;html=1;exitX=0.772;exitY=0.068;exitDx=0;exitDy=0;entryX=0;entryY=0.25;entryDx=0;entryDy=0;exitPerimeter=0;" parent="1" source="229" target="270" edge="1">
                    <mxGeometry relative="1" as="geometry"/>
                </mxCell>
                <mxCell id="283" style="edgeStyle=none;html=1;exitX=0.915;exitY=0.199;exitDx=0;exitDy=0;exitPerimeter=0;entryX=0;entryY=0.25;entryDx=0;entryDy=0;" parent="1" source="229" target="269" edge="1">
                    <mxGeometry relative="1" as="geometry">
                        <mxPoint x="-1950" y="640" as="targetPoint"/>
                    </mxGeometry>
                </mxCell>
                <mxCell id="284" style="edgeStyle=none;html=1;exitX=0.98;exitY=0.357;exitDx=0;exitDy=0;exitPerimeter=0;entryX=0;entryY=0.25;entryDx=0;entryDy=0;" parent="1" source="229" target="211" edge="1">
                    <mxGeometry relative="1" as="geometry">
                        <mxPoint x="-1950" y="840" as="targetPoint"/>
                    </mxGeometry>
                </mxCell>
                <mxCell id="229" value="1" style="ellipse;shape=doubleEllipse;whiteSpace=wrap;html=1;aspect=fixed;direction=south;" parent="1" vertex="1">
                    <mxGeometry x="-3100" y="140" width="77.5" height="77.5" as="geometry"/>
                </mxCell>
                <mxCell id="331" style="edgeStyle=none;html=1;fontSize=16;entryX=0;entryY=0.5;entryDx=0;entryDy=0;" parent="1" source="232" target="226" edge="1">
                    <mxGeometry relative="1" as="geometry">
                        <mxPoint x="-1560" y="1160" as="targetPoint"/>
                    </mxGeometry>
                </mxCell>
                <mxCell id="232" value="" style="ellipse;shape=doubleEllipse;whiteSpace=wrap;html=1;aspect=fixed;" parent="1" vertex="1">
                    <mxGeometry x="-1860" y="1100" width="97.5" height="97.5" as="geometry"/>
                </mxCell>
                <mxCell id="234" value="p=13" style="text;html=1;align=center;verticalAlign=middle;resizable=0;points=[];autosize=1;strokeColor=none;fillColor=none;fontSize=12;" parent="1" vertex="1">
                    <mxGeometry x="-1538.5" y="1227" width="37" height="18" as="geometry"/>
                </mxCell>
                <mxCell id="245" style="edgeStyle=none;html=1;exitX=1;exitY=0.5;exitDx=0;exitDy=0;fontSize=25;" parent="1" source="240" edge="1">
                    <mxGeometry relative="1" as="geometry">
                        <mxPoint x="-570.2857142857142" y="1407.2857142857142" as="targetPoint"/>
                    </mxGeometry>
                </mxCell>
                <mxCell id="240" value="" style="shape=ext;double=1;rounded=0;whiteSpace=wrap;html=1;rotation=90;" parent="1" vertex="1">
                    <mxGeometry x="-580" y="1187" width="20" height="140" as="geometry"/>
                </mxCell>
                <mxCell id="250" style="edgeStyle=none;html=1;exitX=1;exitY=0.5;exitDx=0;exitDy=0;fontSize=25;" parent="1" source="241" edge="1">
                    <mxGeometry relative="1" as="geometry">
                        <mxPoint x="-380.1999999999998" y="1406" as="targetPoint"/>
                    </mxGeometry>
                </mxCell>
                <mxCell id="414" value="vrácení zkoušecí tašky" style="edgeStyle=none;html=1;exitX=1;exitY=0.75;exitDx=0;exitDy=0;entryX=1;entryY=0;entryDx=0;entryDy=0;fontSize=16;" parent="1" source="241" target="173" edge="1">
                    <mxGeometry relative="1" as="geometry">
                        <Array as="points">
                            <mxPoint x="-410" y="1330"/>
                            <mxPoint x="-1020" y="1340"/>
                        </Array>
                    </mxGeometry>
                </mxCell>
                <mxCell id="241" value="" style="shape=ext;double=1;rounded=0;whiteSpace=wrap;html=1;rotation=90;" parent="1" vertex="1">
                    <mxGeometry x="-390" y="1187" width="20" height="140" as="geometry"/>
                </mxCell>
                <mxCell id="253" style="edgeStyle=none;html=1;exitX=1;exitY=0.5;exitDx=0;exitDy=0;fontSize=25;entryX=0.5;entryY=0;entryDx=0;entryDy=0;" parent="1" source="242" target="254" edge="1">
                    <mxGeometry relative="1" as="geometry">
                        <mxPoint x="-181.2307692307695" y="1386.230769230769" as="targetPoint"/>
                    </mxGeometry>
                </mxCell>
                <mxCell id="242" value="" style="shape=ext;double=1;rounded=0;whiteSpace=wrap;html=1;rotation=90;" parent="1" vertex="1">
                    <mxGeometry x="-191.25" y="1185" width="20" height="140" as="geometry"/>
                </mxCell>
                <mxCell id="342" style="edgeStyle=none;html=1;exitX=0.5;exitY=1;exitDx=0;exitDy=0;fontSize=16;entryX=0;entryY=0.5;entryDx=0;entryDy=0;" parent="1" source="247" target="339" edge="1">
                    <mxGeometry relative="1" as="geometry">
                        <mxPoint x="-570.461538461539" y="1630.0000000000005" as="targetPoint"/>
                    </mxGeometry>
                </mxCell>
                <mxCell id="247" value="" style="ellipse;shape=doubleEllipse;whiteSpace=wrap;html=1;aspect=fixed;" parent="1" vertex="1">
                    <mxGeometry x="-603.75" y="1407" width="67.5" height="67.5" as="geometry"/>
                </mxCell>
                <mxCell id="251" value="" style="ellipse;shape=doubleEllipse;whiteSpace=wrap;html=1;aspect=fixed;" parent="1" vertex="1">
                    <mxGeometry x="-411.25" y="1407" width="67.5" height="67.5" as="geometry"/>
                </mxCell>
                <mxCell id="393" style="edgeStyle=none;html=1;exitX=0.5;exitY=1;exitDx=0;exitDy=0;entryX=0;entryY=0.5;entryDx=0;entryDy=0;fontSize=16;" parent="1" source="254" target="392" edge="1">
                    <mxGeometry relative="1" as="geometry"/>
                </mxCell>
                <mxCell id="254" value="" style="ellipse;shape=doubleEllipse;whiteSpace=wrap;html=1;aspect=fixed;" parent="1" vertex="1">
                    <mxGeometry x="-215" y="1405" width="67.5" height="67.5" as="geometry"/>
                </mxCell>
                <mxCell id="255" value="Vejde!" style="text;html=1;align=center;verticalAlign=middle;resizable=0;points=[];autosize=1;strokeColor=none;fillColor=none;fontSize=25;" parent="1" vertex="1">
                    <mxGeometry x="-702.5" y="1430" width="80" height="34" as="geometry"/>
                </mxCell>
                <mxCell id="256" value="Nevejde :(" style="text;html=1;align=center;verticalAlign=middle;resizable=0;points=[];autosize=1;strokeColor=none;fillColor=none;fontSize=25;" parent="1" vertex="1">
                    <mxGeometry x="-520" y="1421.75" width="124" height="34" as="geometry"/>
                </mxCell>
                <mxCell id="257" value="Uložení těsné" style="text;html=1;align=center;verticalAlign=middle;resizable=0;points=[];autosize=1;strokeColor=none;fillColor=none;fontSize=25;" parent="1" vertex="1">
                    <mxGeometry x="-356" y="1421.75" width="163" height="34" as="geometry"/>
                </mxCell>
                <mxCell id="369" style="edgeStyle=none;html=1;exitX=0.5;exitY=1;exitDx=0;exitDy=0;fontSize=16;entryX=0;entryY=0.5;entryDx=0;entryDy=0;" parent="1" source="258" target="370" edge="1">
                    <mxGeometry relative="1" as="geometry">
                        <mxPoint x="-378" y="1620" as="targetPoint"/>
                    </mxGeometry>
                </mxCell>
                <mxCell id="258" value="" style="ellipse;shape=doubleEllipse;whiteSpace=wrap;html=1;aspect=fixed;" parent="1" vertex="1">
                    <mxGeometry x="-411.25" y="1407" width="67.5" height="67.5" as="geometry"/>
                </mxCell>
                <mxCell id="291" style="edgeStyle=none;html=1;entryX=0;entryY=0.5;entryDx=0;entryDy=0;" parent="1" source="259" target="271" edge="1">
                    <mxGeometry relative="1" as="geometry"/>
                </mxCell>
                <mxCell id="259" value="n4" style="ellipse;shape=doubleEllipse;whiteSpace=wrap;html=1;aspect=fixed;" parent="1" vertex="1">
                    <mxGeometry x="-2118.75" y="242" width="77.5" height="77.5" as="geometry"/>
                </mxCell>
                <mxCell id="260" value="n3" style="ellipse;shape=doubleEllipse;whiteSpace=wrap;html=1;aspect=fixed;" parent="1" vertex="1">
                    <mxGeometry x="-2118.75" y="445.5" width="77.5" height="77.5" as="geometry"/>
                </mxCell>
                <mxCell id="294" style="edgeStyle=none;html=1;entryX=0;entryY=0.5;entryDx=0;entryDy=0;" parent="1" source="261" target="211" edge="1">
                    <mxGeometry relative="1" as="geometry"/>
                </mxCell>
                <mxCell id="261" value="n1" style="ellipse;shape=doubleEllipse;whiteSpace=wrap;html=1;aspect=fixed;" parent="1" vertex="1">
                    <mxGeometry x="-2118.75" y="842" width="77.5" height="77.5" as="geometry"/>
                </mxCell>
                <mxCell id="293" style="edgeStyle=none;html=1;entryX=0;entryY=0.5;entryDx=0;entryDy=0;" parent="1" source="262" target="269" edge="1">
                    <mxGeometry relative="1" as="geometry"/>
                </mxCell>
                <mxCell id="262" value="n2" style="ellipse;shape=doubleEllipse;whiteSpace=wrap;html=1;aspect=fixed;" parent="1" vertex="1">
                    <mxGeometry x="-2118.75" y="638.5" width="77.5" height="77.5" as="geometry"/>
                </mxCell>
                <mxCell id="292" style="edgeStyle=none;html=1;entryX=0;entryY=0.5;entryDx=0;entryDy=0;" parent="1" target="270" edge="1">
                    <mxGeometry relative="1" as="geometry">
                        <mxPoint x="-2041.2499999999945" y="484.25" as="sourcePoint"/>
                    </mxGeometry>
                </mxCell>
                <mxCell id="286" style="edgeStyle=none;html=1;entryX=0;entryY=0.5;entryDx=0;entryDy=0;" parent="1" source="264" target="275" edge="1">
                    <mxGeometry relative="1" as="geometry"/>
                </mxCell>
                <mxCell id="264" value="n8" style="ellipse;shape=doubleEllipse;whiteSpace=wrap;html=1;aspect=fixed;" parent="1" vertex="1">
                    <mxGeometry x="-2118.75" y="-560" width="77.5" height="77.5" as="geometry"/>
                </mxCell>
                <mxCell id="290" style="edgeStyle=none;html=1;entryX=0;entryY=0.5;entryDx=0;entryDy=0;" parent="1" source="265" target="272" edge="1">
                    <mxGeometry relative="1" as="geometry"/>
                </mxCell>
                <mxCell id="265" value="n5" style="ellipse;shape=doubleEllipse;whiteSpace=wrap;html=1;aspect=fixed;" parent="1" vertex="1">
                    <mxGeometry x="-2118.75" y="40" width="77.5" height="77.5" as="geometry"/>
                </mxCell>
                <mxCell id="289" style="edgeStyle=none;html=1;entryX=0;entryY=0.5;entryDx=0;entryDy=0;" parent="1" source="266" target="273" edge="1">
                    <mxGeometry relative="1" as="geometry"/>
                </mxCell>
                <mxCell id="266" value="n6" style="ellipse;shape=doubleEllipse;whiteSpace=wrap;html=1;aspect=fixed;" parent="1" vertex="1">
                    <mxGeometry x="-2118.75" y="-163.5" width="77.5" height="77.5" as="geometry"/>
                </mxCell>
                <mxCell id="287" style="edgeStyle=none;html=1;entryX=0;entryY=0.5;entryDx=0;entryDy=0;" parent="1" source="267" target="274" edge="1">
                    <mxGeometry relative="1" as="geometry">
                        <mxPoint x="-1950" y="-317.75" as="targetPoint"/>
                    </mxGeometry>
                </mxCell>
                <mxCell id="267" value="n7" style="ellipse;shape=doubleEllipse;whiteSpace=wrap;html=1;aspect=fixed;" parent="1" vertex="1">
                    <mxGeometry x="-2118.75" y="-356.5" width="77.5" height="77.5" as="geometry"/>
                </mxCell>
                <mxCell id="302" value="n2" style="edgeStyle=none;html=1;exitX=1;exitY=0.25;exitDx=0;exitDy=0;entryX=0.294;entryY=0.997;entryDx=0;entryDy=0;entryPerimeter=0;" parent="1" source="269" target="285" edge="1">
                    <mxGeometry relative="1" as="geometry"/>
                </mxCell>
                <mxCell id="307" style="edgeStyle=none;html=1;exitX=1.036;exitY=0.777;exitDx=0;exitDy=0;fontSize=16;exitPerimeter=0;entryX=0.177;entryY=0.102;entryDx=0;entryDy=0;entryPerimeter=0;" parent="1" source="269" target="232" edge="1">
                    <mxGeometry relative="1" as="geometry">
                        <mxPoint x="-1880" y="1080" as="targetPoint"/>
                        <Array as="points">
                            <mxPoint x="-1843" y="720"/>
                        </Array>
                    </mxGeometry>
                </mxCell>
                <mxCell id="269" value="" style="shape=ext;double=1;rounded=0;whiteSpace=wrap;html=1;" parent="1" vertex="1">
                    <mxGeometry x="-1942.5" y="598.25" width="20" height="158" as="geometry"/>
                </mxCell>
                <mxCell id="301" value="n3" style="edgeStyle=none;html=1;exitX=1;exitY=0.25;exitDx=0;exitDy=0;entryX=0;entryY=1;entryDx=0;entryDy=0;" parent="1" source="270" target="285" edge="1">
                    <mxGeometry relative="1" as="geometry"/>
                </mxCell>
                <mxCell id="308" style="edgeStyle=none;html=1;exitX=1;exitY=0.75;exitDx=0;exitDy=0;entryX=0.309;entryY=0.024;entryDx=0;entryDy=0;entryPerimeter=0;fontSize=16;" parent="1" source="270" target="232" edge="1">
                    <mxGeometry relative="1" as="geometry">
                        <Array as="points">
                            <mxPoint x="-1830" y="524"/>
                        </Array>
                    </mxGeometry>
                </mxCell>
                <mxCell id="270" value="" style="shape=ext;double=1;rounded=0;whiteSpace=wrap;html=1;" parent="1" vertex="1">
                    <mxGeometry x="-1942.5" y="405.25" width="20" height="158" as="geometry"/>
                </mxCell>
                <mxCell id="300" value="n4" style="edgeStyle=none;html=1;exitX=1;exitY=0.25;exitDx=0;exitDy=0;" parent="1" source="271" edge="1">
                    <mxGeometry relative="1" as="geometry">
                        <mxPoint x="-1370" y="200" as="targetPoint"/>
                    </mxGeometry>
                </mxCell>
                <mxCell id="309" style="edgeStyle=none;html=1;exitX=1;exitY=0.75;exitDx=0;exitDy=0;fontSize=16;entryX=0.448;entryY=-0.009;entryDx=0;entryDy=0;entryPerimeter=0;" parent="1" source="271" target="232" edge="1">
                    <mxGeometry relative="1" as="geometry">
                        <Array as="points">
                            <mxPoint x="-1820" y="320"/>
                        </Array>
                    </mxGeometry>
                </mxCell>
                <mxCell id="271" value="" style="shape=ext;double=1;rounded=0;whiteSpace=wrap;html=1;" parent="1" vertex="1">
                    <mxGeometry x="-1942.5" y="201.75" width="20" height="158" as="geometry"/>
                </mxCell>
                <mxCell id="299" value="n5" style="edgeStyle=none;html=1;exitX=1;exitY=0.75;exitDx=0;exitDy=0;entryX=-0.004;entryY=0.386;entryDx=0;entryDy=0;entryPerimeter=0;" parent="1" source="272" target="285" edge="1">
                    <mxGeometry relative="1" as="geometry"/>
                </mxCell>
                <mxCell id="312" style="edgeStyle=none;html=1;exitX=1;exitY=0.25;exitDx=0;exitDy=0;entryX=0.552;entryY=-0.01;entryDx=0;entryDy=0;fontSize=16;entryPerimeter=0;" parent="1" source="272" target="232" edge="1">
                    <mxGeometry relative="1" as="geometry">
                        <Array as="points">
                            <mxPoint x="-1811" y="40"/>
                        </Array>
                    </mxGeometry>
                </mxCell>
                <mxCell id="272" value="" style="shape=ext;double=1;rounded=0;whiteSpace=wrap;html=1;" parent="1" vertex="1">
                    <mxGeometry x="-1942.5" width="20" height="158" as="geometry"/>
                </mxCell>
                <mxCell id="298" value="n6" style="edgeStyle=none;html=1;exitX=1.012;exitY=0.81;exitDx=0;exitDy=0;entryX=0;entryY=0;entryDx=0;entryDy=0;exitPerimeter=0;" parent="1" source="273" target="285" edge="1">
                    <mxGeometry relative="1" as="geometry"/>
                </mxCell>
                <mxCell id="313" style="edgeStyle=none;html=1;exitX=1;exitY=0.25;exitDx=0;exitDy=0;fontSize=16;entryX=0.689;entryY=0.016;entryDx=0;entryDy=0;entryPerimeter=0;" parent="1" source="273" target="232" edge="1">
                    <mxGeometry relative="1" as="geometry">
                        <mxPoint x="-1760" y="1070" as="targetPoint"/>
                        <Array as="points">
                            <mxPoint x="-1800" y="-160"/>
                        </Array>
                    </mxGeometry>
                </mxCell>
                <mxCell id="273" value="" style="shape=ext;double=1;rounded=0;whiteSpace=wrap;html=1;" parent="1" vertex="1">
                    <mxGeometry x="-1942.5" y="-203.5" width="20" height="158" as="geometry"/>
                </mxCell>
                <mxCell id="297" value="n7" style="edgeStyle=none;html=1;exitX=1;exitY=0.75;exitDx=0;exitDy=0;entryX=0.309;entryY=0.028;entryDx=0;entryDy=0;entryPerimeter=0;" parent="1" source="274" target="285" edge="1">
                    <mxGeometry relative="1" as="geometry"/>
                </mxCell>
                <mxCell id="314" style="edgeStyle=none;html=1;exitX=1;exitY=0.25;exitDx=0;exitDy=0;entryX=0.796;entryY=0.078;entryDx=0;entryDy=0;fontSize=16;entryPerimeter=0;" parent="1" source="274" target="232" edge="1">
                    <mxGeometry relative="1" as="geometry">
                        <Array as="points">
                            <mxPoint x="-1790" y="-357"/>
                        </Array>
                    </mxGeometry>
                </mxCell>
                <mxCell id="274" value="" style="shape=ext;double=1;rounded=0;whiteSpace=wrap;html=1;" parent="1" vertex="1">
                    <mxGeometry x="-1942.5" y="-396.5" width="20" height="158" as="geometry"/>
                </mxCell>
                <mxCell id="296" value="n8" style="edgeStyle=none;html=1;exitX=1;exitY=0.75;exitDx=0;exitDy=0;entryX=0.5;entryY=0;entryDx=0;entryDy=0;" parent="1" source="275" target="285" edge="1">
                    <mxGeometry relative="1" as="geometry"/>
                </mxCell>
                <mxCell id="315" style="edgeStyle=none;html=1;exitX=1;exitY=0.25;exitDx=0;exitDy=0;fontSize=16;entryX=0.932;entryY=0.247;entryDx=0;entryDy=0;entryPerimeter=0;" parent="1" source="275" target="232" edge="1">
                    <mxGeometry relative="1" as="geometry">
                        <mxPoint x="-1760" y="1110" as="targetPoint"/>
                        <Array as="points">
                            <mxPoint x="-1780" y="-560"/>
                        </Array>
                    </mxGeometry>
                </mxCell>
                <mxCell id="275" value="" style="shape=ext;double=1;rounded=0;whiteSpace=wrap;html=1;" parent="1" vertex="1">
                    <mxGeometry x="-1942.5" y="-600" width="20" height="158" as="geometry"/>
                </mxCell>
                <mxCell id="324" style="edgeStyle=none;html=1;exitX=1;exitY=0;exitDx=0;exitDy=0;entryX=0;entryY=0.75;entryDx=0;entryDy=0;fontSize=16;" parent="1" source="285" target="110" edge="1">
                    <mxGeometry relative="1" as="geometry"/>
                </mxCell>
                <mxCell id="325" value="2" style="edgeStyle=none;html=1;exitX=1;exitY=1;exitDx=0;exitDy=0;entryX=0;entryY=0.25;entryDx=0;entryDy=0;fontSize=16;" parent="1" source="285" target="111" edge="1">
                    <mxGeometry relative="1" as="geometry"/>
                </mxCell>
                <mxCell id="285" value="" style="ellipse;shape=doubleEllipse;whiteSpace=wrap;html=1;aspect=fixed;" parent="1" vertex="1">
                    <mxGeometry x="-1368.5" y="120" width="122" height="122" as="geometry"/>
                </mxCell>
                <mxCell id="316" value="p=9" style="text;html=1;align=center;verticalAlign=middle;resizable=0;points=[];autosize=1;strokeColor=none;fillColor=none;" parent="1" vertex="1">
                    <mxGeometry x="-1952" y="766.5" width="40" height="20" as="geometry"/>
                </mxCell>
                <mxCell id="317" value="p=8" style="text;html=1;align=center;verticalAlign=middle;resizable=0;points=[];autosize=1;strokeColor=none;fillColor=none;" parent="1" vertex="1">
                    <mxGeometry x="-1952" y="562.25" width="40" height="20" as="geometry"/>
                </mxCell>
                <mxCell id="319" value="p=7" style="text;html=1;align=center;verticalAlign=middle;resizable=0;points=[];autosize=1;strokeColor=none;fillColor=none;" parent="1" vertex="1">
                    <mxGeometry x="-1954" y="359.75" width="40" height="20" as="geometry"/>
                </mxCell>
                <mxCell id="320" value="p=6" style="text;html=1;align=center;verticalAlign=middle;resizable=0;points=[];autosize=1;strokeColor=none;fillColor=none;" parent="1" vertex="1">
                    <mxGeometry x="-1952.5" y="158" width="40" height="20" as="geometry"/>
                </mxCell>
                <mxCell id="321" value="p=5" style="text;html=1;align=center;verticalAlign=middle;resizable=0;points=[];autosize=1;strokeColor=none;fillColor=none;" parent="1" vertex="1">
                    <mxGeometry x="-1954" y="-45.5" width="40" height="20" as="geometry"/>
                </mxCell>
                <mxCell id="322" value="p=4" style="text;html=1;align=center;verticalAlign=middle;resizable=0;points=[];autosize=1;strokeColor=none;fillColor=none;" parent="1" vertex="1">
                    <mxGeometry x="-1954" y="-238.5" width="40" height="20" as="geometry"/>
                </mxCell>
                <mxCell id="323" value="p=3" style="text;html=1;align=center;verticalAlign=middle;resizable=0;points=[];autosize=1;strokeColor=none;fillColor=none;" parent="1" vertex="1">
                    <mxGeometry x="-1954" y="-442" width="40" height="20" as="geometry"/>
                </mxCell>
                <mxCell id="334" style="edgeStyle=none;html=1;exitX=0.5;exitY=0;exitDx=0;exitDy=0;" parent="1" source="335" edge="1">
                    <mxGeometry relative="1" as="geometry">
                        <mxPoint x="153.54411764705947" y="615.3529411764707" as="targetPoint"/>
                    </mxGeometry>
                </mxCell>
                <mxCell id="362" style="edgeStyle=none;html=1;entryX=0;entryY=0.75;entryDx=0;entryDy=0;fontSize=16;" parent="1" target="356" edge="1">
                    <mxGeometry relative="1" as="geometry">
                        <mxPoint x="160" y="730" as="sourcePoint"/>
                        <Array as="points">
                            <mxPoint x="130" y="730"/>
                            <mxPoint x="130" y="1530"/>
                            <mxPoint x="-891" y="1530"/>
                        </Array>
                    </mxGeometry>
                </mxCell>
                <mxCell id="374" style="edgeStyle=none;html=1;exitX=0;exitY=0;exitDx=0;exitDy=0;fontSize=16;" parent="1" source="335" edge="1">
                    <mxGeometry relative="1" as="geometry">
                        <mxPoint x="-230" y="280" as="targetPoint"/>
                    </mxGeometry>
                </mxCell>
                <mxCell id="335" value="" style="ellipse;shape=doubleEllipse;whiteSpace=wrap;html=1;aspect=fixed;" parent="1" vertex="1">
                    <mxGeometry x="160" y="699" width="67.5" height="67.5" as="geometry"/>
                </mxCell>
                <mxCell id="336" style="edgeStyle=none;html=1;exitX=0;exitY=0.25;exitDx=0;exitDy=0;entryX=1;entryY=0;entryDx=0;entryDy=0;" parent="1" source="337" target="335" edge="1">
                    <mxGeometry relative="1" as="geometry">
                        <Array as="points">
                            <mxPoint x="301.25" y="515"/>
                            <mxPoint x="350.25" y="692"/>
                        </Array>
                    </mxGeometry>
                </mxCell>
                <mxCell id="346" style="edgeStyle=none;html=1;exitX=0;exitY=0.5;exitDx=0;exitDy=0;entryX=1;entryY=1;entryDx=0;entryDy=0;fontSize=16;" parent="1" source="337" target="106" edge="1">
                    <mxGeometry relative="1" as="geometry"/>
                </mxCell>
                <mxCell id="337" value="" style="shape=ext;double=1;rounded=0;whiteSpace=wrap;html=1;rotation=90;" parent="1" vertex="1">
                    <mxGeometry x="140" y="531.75" width="20" height="140" as="geometry"/>
                </mxCell>
                <mxCell id="338" value="p=2" style="text;html=1;align=center;verticalAlign=middle;resizable=0;points=[];autosize=1;strokeColor=none;fillColor=none;" parent="1" vertex="1">
                    <mxGeometry x="228.25" y="597" width="40" height="20" as="geometry"/>
                </mxCell>
                <mxCell id="344" style="edgeStyle=none;html=1;exitX=1;exitY=0.25;exitDx=0;exitDy=0;fontSize=16;entryX=0;entryY=1;entryDx=0;entryDy=0;" parent="1" source="339" target="335" edge="1">
                    <mxGeometry relative="1" as="geometry">
                        <mxPoint x="190" y="1050" as="targetPoint"/>
                        <Array as="points">
                            <mxPoint x="-535" y="1720"/>
                            <mxPoint x="160" y="1720"/>
                        </Array>
                    </mxGeometry>
                </mxCell>
                <mxCell id="347" style="edgeStyle=none;html=1;exitX=1;exitY=0.75;exitDx=0;exitDy=0;fontSize=16;entryX=1;entryY=0;entryDx=0;entryDy=0;" parent="1" source="339" target="349" edge="1">
                    <mxGeometry relative="1" as="geometry">
                        <mxPoint x="-1080" y="1740" as="targetPoint"/>
                        <Array as="points">
                            <mxPoint x="-605" y="1720"/>
                        </Array>
                    </mxGeometry>
                </mxCell>
                <mxCell id="339" value="" style="shape=ext;double=1;rounded=0;whiteSpace=wrap;html=1;rotation=90;" parent="1" vertex="1">
                    <mxGeometry x="-580" y="1574" width="20" height="140" as="geometry"/>
                </mxCell>
                <mxCell id="352" style="edgeStyle=none;html=1;exitX=0;exitY=0.5;exitDx=0;exitDy=0;fontSize=16;entryX=0;entryY=0.5;entryDx=0;entryDy=0;" parent="1" source="349" target="350" edge="1">
                    <mxGeometry relative="1" as="geometry">
                        <mxPoint x="-1330" y="1760" as="targetPoint"/>
                    </mxGeometry>
                </mxCell>
                <mxCell id="361" style="edgeStyle=none;html=1;exitX=0.5;exitY=0;exitDx=0;exitDy=0;entryX=0;entryY=0.25;entryDx=0;entryDy=0;fontSize=16;" parent="1" source="349" target="356" edge="1">
                    <mxGeometry relative="1" as="geometry"/>
                </mxCell>
                <mxCell id="372" style="edgeStyle=none;html=1;exitX=0.74;exitY=-0.002;exitDx=0;exitDy=0;fontSize=16;exitPerimeter=0;" parent="1" source="349" edge="1">
                    <mxGeometry relative="1" as="geometry">
                        <mxPoint x="-270" y="280" as="targetPoint"/>
                    </mxGeometry>
                </mxCell>
                <mxCell id="349" value="" style="ellipse;shape=doubleEllipse;whiteSpace=wrap;html=1;aspect=fixed;" parent="1" vertex="1">
                    <mxGeometry x="-1150" y="1710" width="67.5" height="67.5" as="geometry"/>
                </mxCell>
                <mxCell id="353" style="edgeStyle=none;html=1;exitX=1;exitY=0.5;exitDx=0;exitDy=0;fontSize=16;entryX=0.5;entryY=1;entryDx=0;entryDy=0;" parent="1" source="350" target="349" edge="1">
                    <mxGeometry relative="1" as="geometry">
                        <mxPoint x="-1390" y="1980.0000000000005" as="targetPoint"/>
                        <Array as="points">
                            <mxPoint x="-1510" y="1770"/>
                            <mxPoint x="-1510" y="2030"/>
                            <mxPoint x="-1116" y="2030"/>
                        </Array>
                    </mxGeometry>
                </mxCell>
                <mxCell id="354" style="edgeStyle=none;html=1;exitX=1;exitY=0.75;exitDx=0;exitDy=0;fontSize=16;entryX=0.581;entryY=1.015;entryDx=0;entryDy=0;entryPerimeter=0;" parent="1" source="350" target="285" edge="1">
                    <mxGeometry relative="1" as="geometry">
                        <mxPoint x="-1440" y="1030" as="targetPoint"/>
                        <Array as="points">
                            <mxPoint x="-1440" y="1720"/>
                        </Array>
                    </mxGeometry>
                </mxCell>
                <mxCell id="350" value="" style="shape=ext;double=1;rounded=0;whiteSpace=wrap;html=1;rotation=-180;" parent="1" vertex="1">
                    <mxGeometry x="-1340" y="1690" width="20" height="140" as="geometry"/>
                </mxCell>
                <mxCell id="355" value="Pracovník" style="text;html=1;align=center;verticalAlign=middle;resizable=0;points=[];autosize=1;strokeColor=none;fillColor=none;fontSize=16;" parent="1" vertex="1">
                    <mxGeometry x="-951.25" y="490" width="90" height="20" as="geometry"/>
                </mxCell>
                <mxCell id="364" style="edgeStyle=none;html=1;exitX=1;exitY=0.5;exitDx=0;exitDy=0;entryX=0.5;entryY=1;entryDx=0;entryDy=0;fontSize=16;" parent="1" source="356" target="126" edge="1">
                    <mxGeometry relative="1" as="geometry"/>
                </mxCell>
                <mxCell id="356" value="" style="shape=ext;double=1;rounded=0;whiteSpace=wrap;html=1;rotation=-90;" parent="1" vertex="1">
                    <mxGeometry x="-937.25" y="1370" width="20" height="144" as="geometry"/>
                </mxCell>
                <mxCell id="363" value="p=2" style="text;html=1;align=center;verticalAlign=middle;resizable=0;points=[];autosize=1;strokeColor=none;fillColor=none;fontSize=16;" parent="1" vertex="1">
                    <mxGeometry x="-1339" y="1840" width="40" height="20" as="geometry"/>
                </mxCell>
                <mxCell id="367" style="edgeStyle=none;html=1;exitX=0;exitY=0.5;exitDx=0;exitDy=0;entryX=1;entryY=0.5;entryDx=0;entryDy=0;fontSize=16;" parent="1" source="366" target="229" edge="1">
                    <mxGeometry relative="1" as="geometry"/>
                </mxCell>
                <mxCell id="368" style="edgeStyle=none;html=1;exitX=0;exitY=0.75;exitDx=0;exitDy=0;entryX=0.278;entryY=0.967;entryDx=0;entryDy=0;fontSize=16;entryPerimeter=0;" parent="1" source="366" target="126" edge="1">
                    <mxGeometry relative="1" as="geometry">
                        <Array as="points">
                            <mxPoint x="-2060" y="1440"/>
                            <mxPoint x="-2060" y="1650"/>
                            <mxPoint x="-1620" y="1650"/>
                        </Array>
                    </mxGeometry>
                </mxCell>
                <mxCell id="366" value="" style="shape=ext;double=1;rounded=0;whiteSpace=wrap;html=1;" parent="1" vertex="1">
                    <mxGeometry x="-1974" y="1320" width="20" height="140" as="geometry"/>
                </mxCell>
                <mxCell id="371" style="edgeStyle=none;html=1;exitX=1;exitY=0.75;exitDx=0;exitDy=0;entryX=1;entryY=0.5;entryDx=0;entryDy=0;fontSize=16;" parent="1" source="370" target="349" edge="1">
                    <mxGeometry relative="1" as="geometry">
                        <Array as="points">
                            <mxPoint x="-412" y="1744"/>
                        </Array>
                    </mxGeometry>
                </mxCell>
                <mxCell id="373" style="edgeStyle=none;html=1;exitX=1;exitY=0.25;exitDx=0;exitDy=0;entryX=0.5;entryY=1;entryDx=0;entryDy=0;fontSize=16;" parent="1" source="370" target="335" edge="1">
                    <mxGeometry relative="1" as="geometry">
                        <Array as="points">
                            <mxPoint x="-342" y="1740"/>
                            <mxPoint x="190" y="1740"/>
                        </Array>
                    </mxGeometry>
                </mxCell>
                <mxCell id="399" style="edgeStyle=none;html=1;exitX=1;exitY=0.5;exitDx=0;exitDy=0;fontSize=16;entryX=0.5;entryY=0;entryDx=0;entryDy=0;" parent="1" source="370" target="401" edge="1">
                    <mxGeometry relative="1" as="geometry">
                        <mxPoint x="20" y="1679.9999999999995" as="targetPoint"/>
                        <Array as="points">
                            <mxPoint x="-377" y="1670"/>
                        </Array>
                    </mxGeometry>
                </mxCell>
                <mxCell id="370" value="" style="shape=ext;double=1;rounded=0;whiteSpace=wrap;html=1;rotation=90;" parent="1" vertex="1">
                    <mxGeometry x="-387.5" y="1570" width="20" height="140" as="geometry"/>
                </mxCell>
                <mxCell id="376" style="edgeStyle=none;html=1;fontSize=16;" parent="1" source="375" edge="1">
                    <mxGeometry relative="1" as="geometry">
                        <mxPoint x="-258.75" y="190" as="targetPoint"/>
                    </mxGeometry>
                </mxCell>
                <mxCell id="375" value="" style="shape=ext;double=1;rounded=0;whiteSpace=wrap;html=1;rotation=90;" parent="1" vertex="1">
                    <mxGeometry x="-268.75" y="201.75" width="20" height="140" as="geometry"/>
                </mxCell>
                <mxCell id="381" style="edgeStyle=none;html=1;exitX=0;exitY=0;exitDx=0;exitDy=0;entryX=1;entryY=0.25;entryDx=0;entryDy=0;fontSize=16;" parent="1" source="377" target="379" edge="1">
                    <mxGeometry relative="1" as="geometry">
                        <Array as="points">
                            <mxPoint x="-330" y="30"/>
                        </Array>
                    </mxGeometry>
                </mxCell>
                <mxCell id="385" style="edgeStyle=none;html=1;fontSize=16;" parent="1" source="377" edge="1">
                    <mxGeometry relative="1" as="geometry">
                        <mxPoint x="-80" y="160" as="targetPoint"/>
                    </mxGeometry>
                </mxCell>
                <mxCell id="377" value="" style="ellipse;shape=doubleEllipse;whiteSpace=wrap;html=1;aspect=fixed;" parent="1" vertex="1">
                    <mxGeometry x="-292.5" y="120.25" width="67.5" height="67.5" as="geometry"/>
                </mxCell>
                <mxCell id="378" value="může vyjet" style="text;html=1;align=center;verticalAlign=middle;resizable=0;points=[];autosize=1;strokeColor=none;fillColor=none;fontSize=16;" parent="1" vertex="1">
                    <mxGeometry x="-382.5" y="158" width="90" height="20" as="geometry"/>
                </mxCell>
                <mxCell id="382" style="edgeStyle=none;html=1;exitX=0;exitY=0.5;exitDx=0;exitDy=0;fontSize=16;" parent="1" source="379" edge="1">
                    <mxGeometry relative="1" as="geometry">
                        <mxPoint x="-110" y="-29.666666666666515" as="targetPoint"/>
                    </mxGeometry>
                </mxCell>
                <mxCell id="384" style="edgeStyle=none;html=1;exitX=0;exitY=0.25;exitDx=0;exitDy=0;entryX=1;entryY=0;entryDx=0;entryDy=0;fontSize=16;" parent="1" source="379" target="377" edge="1">
                    <mxGeometry relative="1" as="geometry">
                        <Array as="points">
                            <mxPoint x="-170" y="40"/>
                        </Array>
                    </mxGeometry>
                </mxCell>
                <mxCell id="379" value="" style="shape=ext;double=1;rounded=0;whiteSpace=wrap;html=1;rotation=-180;" parent="1" vertex="1">
                    <mxGeometry x="-268.75" y="-100" width="20" height="140" as="geometry"/>
                </mxCell>
                <mxCell id="383" value="pryč" style="text;html=1;align=center;verticalAlign=middle;resizable=0;points=[];autosize=1;strokeColor=none;fillColor=none;fontSize=16;" parent="1" vertex="1">
                    <mxGeometry x="-115" y="-40" width="50" height="20" as="geometry"/>
                </mxCell>
                <mxCell id="387" style="edgeStyle=none;html=1;fontSize=16;" parent="1" source="386" edge="1">
                    <mxGeometry relative="1" as="geometry">
                        <mxPoint x="100" y="154" as="targetPoint"/>
                    </mxGeometry>
                </mxCell>
                <mxCell id="386" value="" style="shape=ext;double=1;rounded=0;whiteSpace=wrap;html=1;rotation=-180;" parent="1" vertex="1">
                    <mxGeometry x="-80" y="84" width="20" height="140" as="geometry"/>
                </mxCell>
                <mxCell id="388" value="" style="ellipse;shape=doubleEllipse;whiteSpace=wrap;html=1;aspect=fixed;" parent="1" vertex="1">
                    <mxGeometry x="100" y="120.25" width="67.5" height="67.5" as="geometry"/>
                </mxCell>
                <mxCell id="389" value="auto vyjelo :)" style="text;html=1;align=center;verticalAlign=middle;resizable=0;points=[];autosize=1;strokeColor=none;fillColor=none;fontSize=16;" parent="1" vertex="1">
                    <mxGeometry x="78.75" y="187.75" width="110" height="20" as="geometry"/>
                </mxCell>
                <mxCell id="391" value="p=1" style="text;html=1;align=center;verticalAlign=middle;resizable=0;points=[];autosize=1;strokeColor=none;fillColor=none;fontSize=16;" parent="1" vertex="1">
                    <mxGeometry x="-280" y="40" width="40" height="20" as="geometry"/>
                </mxCell>
                <mxCell id="406" style="edgeStyle=none;html=1;exitX=1;exitY=0.75;exitDx=0;exitDy=0;fontSize=16;entryX=0.956;entryY=0.75;entryDx=0;entryDy=0;entryPerimeter=0;" parent="1" source="392" target="349" edge="1">
                    <mxGeometry relative="1" as="geometry">
                        <mxPoint x="-720" y="1820" as="targetPoint"/>
                        <Array as="points">
                            <mxPoint x="-218" y="1760"/>
                        </Array>
                    </mxGeometry>
                </mxCell>
                <mxCell id="410" style="edgeStyle=none;html=1;exitX=1;exitY=0.25;exitDx=0;exitDy=0;fontSize=16;entryX=1;entryY=1;entryDx=0;entryDy=0;" parent="1" source="392" target="335" edge="1">
                    <mxGeometry relative="1" as="geometry">
                        <mxPoint x="40" y="1070" as="targetPoint"/>
                        <Array as="points">
                            <mxPoint x="-148" y="1760"/>
                            <mxPoint x="218" y="1760"/>
                        </Array>
                    </mxGeometry>
                </mxCell>
                <mxCell id="392" value="" style="shape=ext;double=1;rounded=0;whiteSpace=wrap;html=1;rotation=90;" parent="1" vertex="1">
                    <mxGeometry x="-193" y="1570" width="20" height="140" as="geometry"/>
                </mxCell>
                <mxCell id="396" value="suck coutAuto" style="text;html=1;align=center;verticalAlign=middle;resizable=0;points=[];autosize=1;strokeColor=none;fillColor=none;fontSize=16;" parent="1" vertex="1">
                    <mxGeometry x="233.25" y="727.5" width="120" height="20" as="geometry"/>
                </mxCell>
                <mxCell id="397" value="suck countBox" style="text;html=1;align=center;verticalAlign=middle;resizable=0;points=[];autosize=1;strokeColor=none;fillColor=none;fontSize=16;" parent="1" vertex="1">
                    <mxGeometry x="-1251.25" y="1680" width="120" height="20" as="geometry"/>
                </mxCell>
                <mxCell id="398" value="countBox" style="text;html=1;align=center;verticalAlign=middle;resizable=0;points=[];autosize=1;strokeColor=none;fillColor=none;fontSize=16;" parent="1" vertex="1">
                    <mxGeometry x="-1190" y="1514" width="80" height="20" as="geometry"/>
                </mxCell>
                <mxCell id="416" style="edgeStyle=none;html=1;exitX=1;exitY=0.5;exitDx=0;exitDy=0;" edge="1" parent="1" source="401">
                    <mxGeometry relative="1" as="geometry">
                        <mxPoint x="-250" y="290" as="targetPoint"/>
                        <Array as="points">
                            <mxPoint x="780" y="1910"/>
                            <mxPoint x="920" y="570"/>
                        </Array>
                    </mxGeometry>
                </mxCell>
                <mxCell id="401" value="" style="ellipse;shape=doubleEllipse;whiteSpace=wrap;html=1;aspect=fixed;" parent="1" vertex="1">
                    <mxGeometry x="-413.75" y="1810" width="73.75" height="73.75" as="geometry"/>
                </mxCell>
                <mxCell id="403" value="p=1" style="text;html=1;align=center;verticalAlign=middle;resizable=0;points=[];autosize=1;strokeColor=none;fillColor=none;fontSize=16;" parent="1" vertex="1">
                    <mxGeometry x="-180" y="261.75" width="40" height="20" as="geometry"/>
                </mxCell>
                <mxCell id="415" value="" style="edgeStyle=none;html=1;" edge="1" parent="1" source="409" target="401">
                    <mxGeometry relative="1" as="geometry"/>
                </mxCell>
                <mxCell id="409" value="nevejde - odjezd" style="text;html=1;align=center;verticalAlign=middle;resizable=0;points=[];autosize=1;strokeColor=none;fillColor=none;fontSize=16;" parent="1" vertex="1">
                    <mxGeometry x="-445" y="1890" width="130" height="20" as="geometry"/>
                </mxCell>
                <mxCell id="412" value="countCar" style="text;html=1;align=center;verticalAlign=middle;resizable=0;points=[];autosize=1;strokeColor=none;fillColor=none;fontSize=16;" parent="1" vertex="1">
                    <mxGeometry x="-160" y="781.75" width="80" height="20" as="geometry"/>
                </mxCell>
            </root>
        </mxGraphModel>
    </diagram>
</mxfile>